# xmcd
#
# Track frame offsets:
#	150
#	17660
#	39993
#	58463
#	87183
#	107865
#	126885
#	142063
#	178491
#	202734
#	230030
#	251309
#
# Disc length: 3789 seconds
#
# Revision: 0
# Processed by: cddbd v1.5.2PL0 Copyright (c) Steve Scherf et al.
# Submitted via: EasyCDDAExtractor 12.1.0.1
#
DISCID=ab0ecb0c
DTITLE=DANIEL AGOSTINI - MI VIDA
DYEAR=1900
DGENRE=Trailer
TTITLE0=01 - HIJO - A PURO DOLOR
TTITLE1=02 - QUIEN SERA - SI VUELVES - DIME
TTITLE2=03 - SOLO - COMO OLVIDARTE
TTITLE3=04 - COMO TU QUIERAS - AÑORANZA - TODAS LAS
TTITLE4=05 - SIEMPRE TE AMARE - COMO YO TE QUISE
TTITLE5=06 - AMIGA - EN TI CONFIE - NADIE
TTITLE6=07 - TE VOY A AMAR
TTITLE7=08 - LA VENTANITA - BESO A BESO
TTITLE8=09 - PUERTAS - EL REGALITO
TTITLE9=10 - TRISTE NOVELA - DIME AMOR
TTITLE10=11 - Y QUE HAS HECHO DE MI
TTITLE11=12 - BOQUITA DE CARAMELO - PORQUE YO - OTRA
EXTD=
EXTT0=
EXTT1=
EXTT2=
EXTT3=
EXTT4=
EXTT5=
EXTT6=
EXTT7=
EXTT8=
EXTT9=
EXTT10=
EXTT11=
PLAYORDER=
